# File created by Blade
# Date/Time:  Wed Jan 21 17:05:57 2015
# Frame Rate: 120.000 fps
#------------------------------------------------------
:FULLY-SPECIFIED
:DEGREES
453
root 19.962119 18.276723 -13.306519 -178.864440 5.293915 -185.543259
Spine 61.311071 5.800214 -6.885644
Head -19.989261 0.780921 3.170697
LeftShoulder 11.004324 -52.279538 27.436582
LeftArm 49.129951 6.576424 -2.800207
LeftForeArm 15.444580 0.000000 -3.301320
LeftHand -4.277243 0.000000 17.006120
LeftHandThumb1 -26.253704 0.000000 33.147579
RightShoulder 6.559559 17.033616 -32.367161
RightArm 51.828121 35.800612 14.945769
RightForeArm -38.662818 -0.000000 5.261566
RightHand -10.439269 -0.000000 -6.990834
RightHandThumb1 -24.326973 -0.000000 -32.862282
LeftUpLeg -82.531502 34.661225 -10.444750
LeftLeg 114.608069 -0.000000 -0.000000
LeftFoot -53.788217 16.930776 -9.800898
LeftToeBase 28.986730 -0.000000 -0.000000
RightUpLeg -84.980224 -16.040739 0.531750
RightLeg 116.658690 -0.000000 -0.000000
RightFoot -55.631781 -26.887402 20.199381
RightToeBase 25.124789 -0.000000 -0.000000
454
root 19.968550 18.622424 -13.321641 -179.079405 5.249089 -185.630952
Spine 60.959809 5.702825 -6.993653
Head -19.866368 0.857665 3.258004
LeftShoulder 10.915459 -51.754944 27.382456
LeftArm 48.583046 6.562668 -2.717856
LeftForeArm 15.341274 0.000000 -3.218326
LeftHand -4.474396 0.000000 16.697127
LeftHandThumb1 -26.253704 0.000000 33.147579
RightShoulder 6.548928 16.998041 -32.240686
RightArm 51.689001 35.688157 15.298608
RightForeArm -38.950041 -0.000000 5.202057
RightHand -10.318027 -0.000000 -7.036801
RightHandThumb1 -24.326973 -0.000000 -32.862282
LeftUpLeg -81.125927 34.700582 -10.275279
LeftLeg 113.285384 -0.000000 -0.000000
LeftFoot -53.593148 16.878298 -9.761417
LeftToeBase 28.955743 -0.000000 -0.000000
RightUpLeg -83.650471 -16.056224 0.275814
RightLeg 115.440628 -0.000000 -0.000000
RightFoot -55.531659 -26.984150 20.226584
RightToeBase 25.326977 -0.000000 -0.000000
455
root 19.979059 18.975823 -13.343003 -179.360948 5.245553 -185.725767
Spine 60.677550 5.674131 -7.133564
Head -19.781140 0.998709 3.320351
LeftShoulder 10.685505 -51.463037 27.482162
LeftArm 48.069811 6.561987 -3.005418
LeftForeArm 15.280827 0.000000 -3.259251
LeftHand -4.355019 -0.000000 16.957185
LeftHandThumb1 -26.253704 0.000000 33.147579
RightShoulder 6.604974 16.820243 -32.035360
RightArm 51.297206 35.531796 15.216512
RightForeArm -39.359410 -0.000000 5.063276
RightHand -10.209705 -0.000000 -7.379679
RightHandThumb1 -24.326973 -0.000000 -32.862282
LeftUpLeg -79.612759 34.778559 -10.048453
LeftLeg 111.928171 -0.000000 -0.000000
LeftFoot -53.402648 16.764541 -9.758459
LeftToeBase 29.000892 -0.000000 -0.000000
RightUpLeg -82.218088 -16.002150 -0.007424
RightLeg 114.190047 -0.000000 -0.000000
RightFoot -55.415739 -27.021066 20.272361
RightToeBase 25.219945 -0.000000 -0.000000
456
root 19.990161 19.327408 -13.368552 -179.644158 5.258310 -185.775560
Spine 60.361398 5.632773 -7.217469
Head -19.675474 1.097196 3.338222
LeftShoulder 10.511328 -51.190821 27.435450
LeftArm 47.571826 6.660659 -3.157746
LeftForeArm 15.078987 0.000000 -3.184647
LeftHand -4.382274 -0.000000 16.706622
LeftHandThumb1 -26.253704 0.000000 33.147579
RightShoulder 6.648727 16.710853 -31.837032
RightArm 51.098116 35.516476 15.436645
RightForeArm -39.319452 0.000000 5.072405
RightHand -10.214345 0.000000 -7.336821
RightHandThumb1 -24.326973 -0.000000 -32.862282
LeftUpLeg -78.104512 34.852709 -9.769579
LeftLeg 110.584105 -0.000000 -0.000000
LeftFoot -53.159882 16.705947 -9.734708
LeftToeBase 28.903215 -0.000000 -0.000000
RightUpLeg -80.780761 -15.913830 -0.255218
RightLeg 112.926088 -0.000000 -0.000000
RightFoot -55.281121 -27.073825 20.363612
RightToeBase 25.391558 -0.000000 -0.000000
457
root 19.997588 19.678616 -13.399990 -179.967868 5.249452 -185.870666
Spine 60.051663 5.621941 -7.301896
Head -19.527341 1.139762 3.384292
LeftShoulder 10.352400 -50.812431 27.428457
LeftArm 47.043096 6.577844 -3.485784
LeftForeArm 15.267230 -0.000000 -3.184976
LeftHand -4.346187 -0.000000 17.090278
LeftHandThumb1 -26.253704 0.000000 33.147579
RightShoulder 6.647474 16.612234 -31.617593
RightArm 50.892710 35.485505 15.692164
RightForeArm -38.986438 -0.000000 5.199296
RightHand -10.339584 -0.000000 -6.935478
RightHandThumb1 -24.326973 -0.000000 -32.862282
LeftUpLeg -76.546284 34.904058 -9.512953
LeftLeg 109.220664 -0.000000 -0.000000
LeftFoot -52.954357 16.665142 -9.764177
LeftToeBase 28.999099 -0.000000 -0.000000
RightUpLeg -79.327837 -15.859129 -0.555882
RightLeg 111.678259 -0.000000 -0.000000
RightFoot -55.130220 -27.085508 20.492532
RightToeBase 25.355053 -0.000000 -0.000000
458
root 20.004189 20.031598 -13.437963 -180.343425 5.225800 -185.932257
Spine 59.780704 5.554692 -7.329219
Head -19.355263 1.218593 3.255394
LeftShoulder 10.311856 -50.471288 27.232049
LeftArm 46.492693 6.552845 -3.683841
LeftForeArm 15.256577 0.000000 -3.142109
LeftHand -4.323549 -0.000000 17.091288
LeftHandThumb1 -26.253704 0.000000 33.147579
RightShoulder 6.630059 16.595829 -31.509207
RightArm 50.773203 35.438299 16.205771
RightForeArm -39.082768 0.000000 5.217377
RightHand -10.396865 0.000000 -6.946820
RightHandThumb1 -24.326973 -0.000000 -32.862282
LeftUpLeg -74.898846 34.879840 -9.155797
LeftLeg 107.848212 -0.000000 -0.000000
LeftFoot -52.762219 16.643734 -9.880798
LeftToeBase 29.088300 -0.000000 -0.000000
RightUpLeg -77.799460 -15.840235 -0.837327
RightLeg 110.408376 -0.000000 -0.000000
RightFoot -54.973585 -27.078025 20.570333
RightToeBase 25.345321 -0.000000 -0.000000
